/* XPM */
static char * mplayer_xpm[] = {
"16 16 91 1",
" 	c None",
".	c #32246A",
"+	c #3A2A7D",
"@	c #302368",
"#	c #3A2A7C",
"$	c #857F9D",
"%	c #9088B6",
"&	c #9188B6",
"*	c #5C5286",
"=	c #645896",
"-	c #66599A",
";	c #625698",
">	c #413281",
",	c #ADE2F4",
"'	c #FFFFFF",
")	c #C3C1CA",
"!	c #0993C4",
"~	c #EEF9FD",
"{	c #0A96C9",
"]	c #F1FAFE",
"^	c #0BAEE8",
"/	c #F3FBFE",
"(	c #B1AACB",
"_	c #C8C3DA",
":	c #C6C2DA",
"<	c #948CB8",
"[	c #C9C7D3",
"}	c #C7C7C7",
"|	c #0979A1",
"1	c #0A9ED4",
"2	c #F6FCFE",
"3	c #847AAE",
"4	c #685B9B",
"5	c #8D84B4",
"6	c #766AA4",
"7	c #9693A2",
"8	c #818181",
"9	c #7C7C7C",
"0	c #8E8E8E",
"a	c #969696",
"b	c #9E9E9E",
"c	c #717171",
"d	c #FAFBFC",
"e	c #0BA8E0",
"f	c #076C90",
"g	c #F9FDFE",
"h	c #DAD8E7",
"i	c #E6E4EE",
"j	c #D0CCE0",
"k	c #E5E2EE",
"l	c #DDDDDD",
"m	c #C8C8C8",
"n	c #C0C0C0",
"o	c #9A9A9A",
"p	c #C9C9C9",
"q	c #D9D9D9",
"r	c #EBEBEB",
"s	c #FCFEFF",
"t	c #F1F0F6",
"u	c #FEFEFE",
"v	c #0990C0",
"w	c #FAFBFB",
"x	c #EDEBF3",
"y	c #8C84B0",
"z	c #AFA9C9",
"A	c #978EBA",
"B	c #E0E2EE",
"C	c #0A9CD0",
"D	c #9793A9",
"E	c #F9F8FB",
"F	c #FCFCFE",
"G	c #FDFCFE",
"H	c #A49DC3",
"I	c #C8C8CA",
"J	c #272727",
"K	c #ACABAC",
"L	c #7A87B9",
"M	c #2D2062",
"N	c #352672",
"O	c #32246D",
"P	c #362673",
"Q	c #241A4F",
"R	c #554A82",
"S	c #CCCCCD",
"T	c #2B2B2B",
"U	c #BABABA",
"V	c #887FB1",
"W	c #847CA4",
"X	c #D6D3E3",
"Y	c #9A92B8",
"Z	c #201643",
"                ",
"          .+@#  ",
"   $%&*=-----;> ",
" ,'''''''''''') ",
"!~''''''''''''' ",
"{]''''''''''''' ",
"^/(_:<[}'''''''|",
"1234567890a0bcde",
"fghijklmnobpqrs^",
" s''''''''''tusv",
" w''''''''xyzABC",
" DEFG'''''HIJKL ",
" M+++NO+PQRSTUV ",
"           WXY  ",
"            Z   ",
"                "};
