/* XPM */
static char * mutt_mini_xpm[] = {
"14 15 79 1",
" 	c None",
".	c #323132",
"+	c #353335",
"@	c #585758",
"#	c #8F8B78",
"$	c #555452",
"%	c #212021",
"&	c #191819",
"*	c #000000",
"=	c #7A774D",
"-	c #A29F9B",
";	c #535153",
">	c #9E9A9E",
",	c #C7C3C7",
"'	c #2C2B2C",
")	c #1C1B1C",
"!	c #111011",
"~	c #5D5B5D",
"{	c #979497",
"]	c #706E70",
"^	c #6F6C6F",
"/	c #291529",
"(	c #5A5A5A",
"_	c #636163",
":	c #A9A5A9",
"<	c #B9B5B9",
"[	c #B4B0B4",
"}	c #3A393A",
"|	c #8C898C",
"1	c #590059",
"2	c #C439C4",
"3	c #858285",
"4	c #D28587",
"5	c #4C2627",
"6	c #242324",
"7	c #BFBBBF",
"8	c #1A161A",
"9	c #514051",
"0	c #B6B3B6",
"a	c #B74546",
"b	c #BA5557",
"c	c #C4BEC1",
"d	c #7C7A7C",
"e	c #6C6A6C",
"f	c #C0BCC0",
"g	c #666466",
"h	c #7A777A",
"i	c #787678",
"j	c #552929",
"k	c #B15557",
"l	c #C1B0B4",
"m	c #ABA8AB",
"n	c #220000",
"o	c #613335",
"p	c #1A1A1A",
"q	c #B1ADB1",
"r	c #959295",
"s	c #908D90",
"t	c #827F82",
"u	c #AAA7AA",
"v	c #4F4D4F",
"w	c #464546",
"x	c #B2AFB2",
"y	c #8D8A8D",
"z	c #29292A",
"A	c #64666E",
"B	c #AEABAE",
"C	c #292929",
"D	c #BCB8BC",
"E	c #403E40",
"F	c #747274",
"G	c #A4A1A4",
"H	c #B8B4B8",
"I	c #2B2A2B",
"J	c #646264",
"K	c #C6C2C6",
"L	c #3E3D3E",
"M	c #5A585A",
"N	c #4C4A4C",
"  .+          ",
"   @#$        ",
" %&*=-        ",
"  ;.>,'     ) ",
"  !~{,]     ^'",
"/(_:<,[}    |'",
"123,,,,45**67'",
"897,,0abcdefg ",
"'h,,ijkl,,,,m%",
" }**no,,,,,,,'",
"     pq,,mr,s ",
"     &tuv^wxt ",
"     &^yzABCDE",
"   }FGH,I3JBKh",
"   Lehdd)MLddN"};
